<?xml version="1.0" standalone="no"?>
<!DOCTYPE svg PUBLIC "-//W3C//DTD SVG 20010904//EN"
 "http://www.w3.org/TR/2001/REC-SVG-20010904/DTD/svg10.dtd">
<svg version="1.0" xmlns="http://www.w3.org/2000/svg"
 width="66.000000pt" height="66.000000pt" viewBox="0 0 66.000000 66.000000"
 preserveAspectRatio="xMidYMid meet">

<g transform="translate(0.000000,66.000000) scale(0.100000,-0.100000)"
fill="#000000" stroke="none">
<path d="M280 605 c-44 -45 -45 -45 -112 -45 l-68 0 0 -67 c0 -67 0 -68 -47
-115 l-47 -48 47 -48 c47 -47 47 -48 47 -115 l0 -67 67 0 c67 0 68 0 115 -47
l48 -47 48 47 c47 47 48 47 115 47 l67 0 0 67 c0 67 0 68 47 115 l47 48 -47
48 c-47 47 -47 48 -47 115 l0 67 -68 0 c-67 0 -68 0 -112 45 -24 25 -47 45
-50 45 -3 0 -26 -20 -50 -45z m95 -25 c37 -38 42 -40 102 -40 l63 0 0 -62 c0
-60 2 -64 42 -105 l42 -43 -42 -43 c-40 -41 -42 -45 -42 -105 l0 -62 -62 0
c-60 0 -64 -2 -105 -42 l-43 -42 -43 42 c-41 40 -45 42 -105 42 l-62 0 0 62
c0 60 -2 64 -42 105 l-42 43 42 43 c40 41 42 45 42 105 l0 62 63 0 c60 0 65 2
102 40 21 22 42 40 45 40 3 0 24 -18 45 -40z"/>
<path d="M290 555 c-31 -32 -39 -35 -92 -35 l-58 0 0 -57 c0 -52 -3 -60 -37
-95 l-37 -38 37 -38 c34 -35 37 -43 37 -95 l0 -57 57 0 c52 0 60 -3 95 -37
l38 -37 38 37 c35 34 43 37 95 37 l57 0 0 57 c0 52 3 60 37 95 l37 38 -37 38
c-34 35 -37 43 -37 95 l0 57 -58 0 c-53 0 -61 3 -92 35 -19 19 -37 35 -40 35
-3 0 -21 -16 -40 -35z m80 -20 c29 -30 40 -35 82 -35 l48 0 0 -47 c0 -41 5
-52 37 -85 l37 -38 -37 -38 c-32 -33 -37 -44 -37 -85 l0 -47 -47 0 c-41 0 -52
-5 -85 -37 l-38 -37 -38 37 c-33 32 -44 37 -85 37 l-47 0 0 47 c0 41 -5 52
-37 85 l-37 38 37 38 c32 33 37 44 37 85 l0 47 48 0 c42 0 53 5 82 35 19 19
37 35 40 35 3 0 21 -16 40 -35z"/>
<path d="M306 468 c-9 -12 -16 -39 -16 -60 0 -37 -1 -38 -39 -38 -24 0 -48 -7
-62 -20 l-24 -20 24 -20 c14 -13 38 -20 62 -20 39 0 39 0 39 -39 0 -24 7 -48
20 -62 l20 -24 20 24 c13 14 20 38 20 62 0 39 0 39 39 39 24 0 48 7 62 20 l24
20 -24 20 c-14 13 -38 20 -62 20 -38 0 -39 1 -39 38 0 37 -22 82 -40 82 -5 0
-16 -10 -24 -22z m38 -24 c9 -24 7 -67 -4 -84 -9 -13 -11 -13 -20 0 -11 17
-13 83 -3 93 11 11 20 8 27 -9z m-44 -104 c13 -9 13 -11 0 -20 -20 -13 -87
-13 -96 1 -15 25 64 40 96 19z m150 0 c13 -9 13 -11 0 -20 -8 -5 -28 -10 -45
-10 -16 0 -37 5 -45 10 -13 9 -13 11 0 20 8 5 29 10 45 10 17 0 37 -5 45 -10z
m-106 -46 c9 -24 7 -67 -4 -84 -9 -13 -11 -13 -20 0 -17 26 -10 100 10 100 4
0 11 -7 14 -16z"/>
<path d="M50 625 c0 -8 -7 -15 -15 -15 -8 0 -15 -4 -15 -10 0 -15 19 -12 36 4
16 17 19 36 4 36 -5 0 -10 -7 -10 -15z"/>
<path d="M80 600 c0 -5 7 -10 16 -10 8 0 12 5 9 10 -3 6 -10 10 -16 10 -5 0
-9 -4 -9 -10z"/>
<path d="M50 565 c0 -8 5 -15 10 -15 6 0 10 7 10 15 0 8 -4 15 -10 15 -5 0
-10 -7 -10 -15z"/>
<path d="M580 530 c0 -27 5 -50 10 -50 6 0 10 23 10 50 0 28 -4 50 -10 50 -5
0 -10 -22 -10 -50z"/>
<path d="M580 450 c0 -5 5 -10 10 -10 6 0 10 5 10 10 0 6 -4 10 -10 10 -5 0
-10 -4 -10 -10z"/>
<path d="M60 140 c0 -27 5 -50 10 -50 6 0 10 23 10 50 0 28 -4 50 -10 50 -5 0
-10 -22 -10 -50z"/>
<path d="M590 95 c0 -8 5 -15 10 -15 6 0 10 7 10 15 0 8 -4 15 -10 15 -5 0
-10 -7 -10 -15z"/>
<path d="M60 60 c0 -5 5 -10 10 -10 6 0 10 5 10 10 0 6 -4 10 -10 10 -5 0 -10
-4 -10 -10z"/>
<path d="M550 60 c0 -5 7 -10 15 -10 8 0 15 5 15 10 0 6 -7 10 -15 10 -8 0
-15 -4 -15 -10z"/>
<path d="M603 55 c-16 -17 -17 -35 -3 -35 6 0 10 7 10 15 0 8 7 15 15 15 8 0
15 5 15 10 0 15 -23 12 -37 -5z"/>
</g>
</svg>
